<?xml version="1.0" encoding="UTF-8" standalone="no"?>
<!-- Generator: Adobe Illustrator 19.0.0, SVG Export Plug-In . SVG Version: 6.00 Build 0)  -->

<svg
   xmlns:dc="http://purl.org/dc/elements/1.1/"
   xmlns:cc="http://creativecommons.org/ns#"
   xmlns:rdf="http://www.w3.org/1999/02/22-rdf-syntax-ns#"
   xmlns:svg="http://www.w3.org/2000/svg"
   xmlns="http://www.w3.org/2000/svg"
   xmlns:sodipodi="http://sodipodi.sourceforge.net/DTD/sodipodi-0.dtd"
   xmlns:inkscape="http://www.inkscape.org/namespaces/inkscape"
   version="1.1"
   id="Layer_1"
   x="0px"
   y="0px"
   viewBox="0 0 512 512"
   style="enable-background:new 0 0 512 512;"
   xml:space="preserve"
   sodipodi:docname="gneelignt.svg"
   inkscape:version="0.92.3 (2405546, 2018-03-11)"
   inkscape:export-filename="/home/vinsce/Scaricati/gneelight.png"
   inkscape:export-xdpi="48"
   inkscape:export-ydpi="48"><metadata
   id="metadata55"><rdf:RDF><cc:Work
       rdf:about=""><dc:format>image/svg+xml</dc:format><dc:type
         rdf:resource="http://purl.org/dc/dcmitype/StillImage" /><dc:title /></cc:Work></rdf:RDF></metadata><defs
   id="defs53" /><sodipodi:namedview
   pagecolor="#ffffff"
   bordercolor="#666666"
   borderopacity="1"
   objecttolerance="10"
   gridtolerance="10"
   guidetolerance="10"
   inkscape:pageopacity="0"
   inkscape:pageshadow="2"
   inkscape:window-width="1920"
   inkscape:window-height="1012"
   id="namedview51"
   showgrid="false"
   inkscape:zoom="0.921875"
   inkscape:cx="315.01751"
   inkscape:cy="198.36066"
   inkscape:window-x="0"
   inkscape:window-y="0"
   inkscape:window-maximized="1"
   inkscape:current-layer="Layer_1" />
<path
   style="fill:#757575;fill-opacity:1;stroke-width:0.79155868"
   d="m 220.40113,396.08081 v 27.16709 0 c 0,19.66152 15.93803,35.59956 35.59877,35.59956 19.66073,0 35.59876,-15.93804 35.59876,-35.59877 v -27.16708 z"
   id="path2"
   inkscape:connector-curvature="0" />

<path
   style="fill:#fb5a00;fill-opacity:1;stroke-width:0.79155868"
   d="m 255.9999,55.152542 c -75.63264,0 -136.9444,61.311758 -136.9444,136.944398 0,37.41144 15.00162,71.31943 39.31751,96.03585 l 0.009,-0.0103 c 16.63618,16.57762 28.50956,37.92833 33.41881,61.82073 v 19.50638 h 128.39715 v -19.50638 c 4.90845,-23.89161 16.78183,-45.24311 33.41881,-61.82073 l 0.01,0.0103 C 377.94188,263.41637 392.9435,229.50917 392.9435,192.09694 392.94429,116.4643 331.63253,55.152542 255.9999,55.152542 Z"
   id="path6"
   inkscape:connector-curvature="0" />






<g
   id="g20">
</g>
<g
   id="g22">
</g>
<g
   id="g24">
</g>
<g
   id="g26">
</g>
<g
   id="g28">
</g>
<g
   id="g30">
</g>
<g
   id="g32">
</g>
<g
   id="g34">
</g>
<g
   id="g36">
</g>
<g
   id="g38">
</g>
<g
   id="g40">
</g>
<g
   id="g42">
</g>
<g
   id="g44">
</g>
<g
   id="g46">
</g>
<g
   id="g48">
</g>
<g
   id="g924"
   style="fill:#ffffff;fill-opacity:1;stroke:#ffffff;stroke-width:2.5999999;stroke-linecap:round;stroke-miterlimit:4;stroke-dasharray:none;stroke-opacity:1"
   transform="matrix(0.79155866,0,0,0.79155866,55.784933,68.872074)"><path
     sodipodi:nodetypes="csccscscsscsccsscccsscccscccscsccssss"
     id="path2-7"
     d="m 338.54407,243.4578 c 19.30793,0 35.02103,-15.7131 35.02103,-35.02103 0,-14.03539 -8.32016,-26.13657 -20.27313,-31.7207 l -0.0399,-0.1843 c -4.02613,-19.84373 -21.66964,-34.24582 -41.94657,-34.24582 -4.90204,0 -9.70147,0.8322 -14.3033,2.48331 -8.90346,-15.8024 -25.81926,-25.83066 -44.06508,-25.83066 -16.54911,0 -32.0551,8.20235 -41.46397,21.64304 -6.02494,-3.82853 -13.14618,-6.07814 -20.79563,-6.07814 -21.45684,0 -38.91225,17.45541 -38.91225,38.91225 0,1.1704 0.0627,2.36171 0.1824,3.59102 -11.85988,5.82544 -19.63853,18.08622 -19.63853,31.43 0,19.30793 15.7131,35.02103 35.02103,35.02103 109.341,0 67.86735,0 171.2139,0 z m -171.2139,-7.78245 c -15.0196,0 -27.23858,-12.21898 -27.23858,-27.23858 0,-11.18727 7.03575,-21.39793 17.50671,-25.41266 l 2.98872,-1.14571 -0.5453,-3.15021 c -0.33441,-1.90762 -0.494,-3.64613 -0.494,-5.31244 0,-17.16471 13.96509,-31.1298 31.1298,-31.1298 17.16471,0 31.1298,13.96509 31.1298,31.1298 h 7.78245 c 0,-10.98017 -4.59233,-20.89254 -11.93018,-27.97388 7.93826,-11.58438 21.12814,-18.72082 35.27753,-18.72082 16.47881,0 31.6751,9.67296 38.71465,24.64316 l 1.63781,3.48652 3.50173,-1.60361 c 4.61892,-2.10901 9.49815,-3.17872 14.51419,-3.17872 15.13359,0 28.44128,9.81356 33.17611,23.89265 -1.93421,-0.3344 -3.91022,-0.5453 -5.93754,-0.5453 -6.15604,0 -12.21138,1.62261 -17.51051,4.68923 l 3.89502,6.73554 c 4.11733,-2.38071 8.82936,-3.64232 13.61549,-3.64232 15.0196,0 27.23858,12.21898 27.23858,27.23857 0,15.0196 -12.21898,27.23858 -27.23858,27.23858 z"
     inkscape:connector-curvature="0"
     style="fill:#ffffff;fill-opacity:1;stroke:#ffffff;stroke-width:2.5999999;stroke-linecap:round;stroke-miterlimit:4;stroke-dasharray:none;stroke-opacity:1" /><path
     id="path4"
     d="m 155.65649,208.43677 h -7.78245 c 0,10.72747 8.72866,19.45613 19.45613,19.45613 v -7.78245 c -6.43535,0 -11.67368,-5.23834 -11.67368,-11.67368 z m 0,0"
     inkscape:connector-curvature="0"
     style="fill:#ffffff;fill-opacity:1;stroke:#ffffff;stroke-width:2.5999999;stroke-linecap:round;stroke-miterlimit:4;stroke-dasharray:none;stroke-opacity:1" /><path
     id="path6-5"
     d="m 190.67752,157.85085 v -7.78245 c -12.87639,0 -23.34735,10.47097 -23.34735,23.34735 h 7.78245 c 0,-8.58426 6.98064,-15.5649 15.5649,-15.5649 z m 0,0"
     inkscape:connector-curvature="0"
     style="fill:#ffffff;fill-opacity:1;stroke:#ffffff;stroke-width:2.5999999;stroke-linecap:round;stroke-miterlimit:4;stroke-dasharray:none;stroke-opacity:1" /><path
     id="path16"
     d="m 272.86445,161.27087 c -7.58485,-7.58675 -19.93113,-7.58675 -27.51598,0 l 5.50244,5.50244 c 4.55242,-4.54863 11.95868,-4.54863 16.5111,0 4.55623,4.55243 4.55243,11.95867 0,16.5111 l 5.50244,5.50244 c 7.58294,-7.58865 7.58675,-19.93113 0,-27.51598 z m 0,0"
     inkscape:connector-curvature="0"
     style="fill:#ffffff;fill-opacity:1;stroke:#ffffff;stroke-width:2.5999999;stroke-linecap:round;stroke-miterlimit:4;stroke-dasharray:none;stroke-opacity:1" /><path
     id="path18"
     d="m 358.0002,208.43677 c 0,-10.72747 -8.72866,-19.45612 -19.45613,-19.45612 v 7.78245 c 6.43534,0 11.67368,5.23833 11.67368,11.67367 0,6.43534 -5.23834,11.67368 -11.67368,11.67368 v 7.78245 c 10.72747,0 19.45613,-8.72866 19.45613,-19.45613 z m 0,0"
     inkscape:connector-curvature="0"
     style="fill:#ffffff;fill-opacity:1;stroke:#ffffff;stroke-width:2.5999999;stroke-linecap:round;stroke-miterlimit:4;stroke-dasharray:none;stroke-opacity:1" /><path
     id="path20"
     d="m 284.06692,224.00167 c 10.72747,0 19.45612,-8.72865 19.45612,-19.45612 h -7.78245 c 0,6.43534 -5.23833,11.67367 -11.67367,11.67367 -6.43534,0 -11.67368,-5.23833 -11.67368,-11.67367 h -7.78245 c 0,10.72747 8.72866,19.45612 19.45613,19.45612 z m 0,0"
     inkscape:connector-curvature="0"
     style="fill:#ffffff;fill-opacity:1;stroke:#ffffff;stroke-width:2.5999999;stroke-linecap:round;stroke-miterlimit:4;stroke-dasharray:none;stroke-opacity:1" /><path
     id="path22"
     d="m 202.35119,185.08942 c -10.72747,0 -19.45612,8.72866 -19.45612,19.45613 h 7.78245 c 0,-6.43534 5.23833,-11.67368 11.67367,-11.67368 6.43534,0 11.67368,5.23834 11.67368,11.67368 h 7.78245 c 0,-10.72747 -8.72866,-19.45613 -19.45613,-19.45613 z m 0,0"
     inkscape:connector-curvature="0"
     style="fill:#ffffff;fill-opacity:1;stroke:#ffffff;stroke-width:2.5999999;stroke-linecap:round;stroke-miterlimit:4;stroke-dasharray:none;stroke-opacity:1" /></g><path
   style="fill:#757575;fill-opacity:1;stroke-width:0.79155868"
   d="m 329.52699,365.19182 c 0,-7.0987 -3.7322,-13.31243 -9.32773,-16.8317 H 191.80132 c -5.59711,3.51927 -9.32772,9.73221 -9.32772,16.8317 0,9.41638 6.55173,17.28527 15.3404,19.3449 h 0.023 c -5.27416,3.57626 -8.74039,9.61823 -8.74039,16.46996 0,10.98367 8.90345,19.88791 19.88791,19.88791 h 94.03479 c 10.98288,0 19.88791,-8.90345 19.88791,-19.88791 0,-6.85252 -3.46623,-12.89449 -8.74039,-16.46996 h 0.023 c 8.78551,-2.05963 15.33724,-9.92852 15.33724,-19.3449 z"
   id="path12"
   inkscape:connector-curvature="0" /></svg>